<svg width="4329" height="2317" xmlns="http://www.w3.org/2000/svg" xmlns:xlink="http://www.w3.org/1999/xlink" xml:space="preserve" overflow="hidden"><g transform="translate(-41 -29)"><rect x="44.4998" y="32.5002" width="4322" height="2310" stroke="#182C33" stroke-width="6.875" stroke-miterlimit="8" fill="#E1F6E9"/><path d="M1859.5 1288C1859.5 1270.05 1874.05 1255.5 1892 1255.5L2604 1255.5C2621.95 1255.5 2636.5 1270.05 2636.5 1288L2636.5 1418C2636.5 1435.95 2621.95 1450.5 2604 1450.5L1892 1450.5C1874.05 1450.5 1859.5 1435.95 1859.5 1418Z" stroke="#042433" stroke-width="6.875" stroke-miterlimit="8" fill="#173035" fill-rule="evenodd"/><text fill="#E1F6E9" font-family="Malgun Gothic,Malgun Gothic_MSFontService,sans-serif" font-weight="700" font-size="83" transform="matrix(1 0 0 1 2076.87 1384)">Qadence</text><text fill="#122B30" font-family="Malgun Gothic,Malgun Gothic_MSFontService,sans-serif" font-weight="400" font-size="73" transform="matrix(1 0 0 1 1351.32 1565)">Interface to build</text><text fill="#122B30" font-family="Malgun Gothic,Malgun Gothic_MSFontService,sans-serif" font-weight="700" font-size="73" transform="matrix(1 0 0 1 1954.88 1565)">digital</text><text fill="#122B30" font-family="Malgun Gothic,Malgun Gothic_MSFontService,sans-serif" font-weight="700" font-size="73" transform="matrix(1 0 0 1 2174.88 1565)">-</text><text fill="#122B30" font-family="Malgun Gothic,Malgun Gothic_MSFontService,sans-serif" font-weight="700" font-size="73" transform="matrix(1 0 0 1 2205.24 1565)">analog quantum programs</text><path d="M1433.5 1856C1433.5 1838.05 1448.05 1823.5 1466 1823.5L1902 1823.5C1919.95 1823.5 1934.5 1838.05 1934.5 1856L1934.5 1986C1934.5 2003.95 1919.95 2018.5 1902 2018.5L1466 2018.5C1448.05 2018.5 1433.5 2003.95 1433.5 1986Z" stroke="#042433" stroke-width="6.875" stroke-miterlimit="8" fill="#173035" fill-rule="evenodd"/><text fill="#E1F6E9" font-family="Malgun Gothic,Malgun Gothic_MSFontService,sans-serif" font-weight="700" font-size="83" transform="matrix(1 0 0 1 1520.37 1952)">Horqrux</text><text fill="#122B30" font-family="Malgun Gothic,Malgun Gothic_MSFontService,sans-serif" font-weight="400" font-size="73" transform="matrix(1 0 0 1 1344.22 2145)">JAX</text><text fill="#122B30" font-family="Malgun Gothic,Malgun Gothic_MSFontService,sans-serif" font-weight="400" font-size="73" transform="matrix(1 0 0 1 1461.37 2145)">-</text><text fill="#122B30" font-family="Malgun Gothic,Malgun Gothic_MSFontService,sans-serif" font-weight="400" font-size="73" transform="matrix(1 0 0 1 1491.74 2145)">based simulator</text><path d="M2633.5 1856C2633.5 1838.05 2648.05 1823.5 2666 1823.5L3082 1823.5C3099.95 1823.5 3114.5 1838.05 3114.5 1856L3114.5 1986C3114.5 2003.95 3099.95 2018.5 3082 2018.5L2666 2018.5C2648.05 2018.5 2633.5 2003.95 2633.5 1986Z" stroke="#042433" stroke-width="6.875" stroke-miterlimit="8" fill="#173035" fill-rule="evenodd"/><text fill="#E1F6E9" font-family="Malgun Gothic,Malgun Gothic_MSFontService,sans-serif" font-weight="700" font-size="83" transform="matrix(1 0 0 1 2688.77 1952)">PyQTorch</text><text fill="#122B30" font-family="Malgun Gothic,Malgun Gothic_MSFontService,sans-serif" font-weight="400" font-size="73" transform="matrix(1 0 0 1 2465.27 2146)">PyTorch</text><text fill="#122B30" font-family="Malgun Gothic,Malgun Gothic_MSFontService,sans-serif" font-weight="400" font-size="73" transform="matrix(1 0 0 1 2720.19 2146)">-</text><text fill="#122B30" font-family="Malgun Gothic,Malgun Gothic_MSFontService,sans-serif" font-weight="400" font-size="73" transform="matrix(1 0 0 1 2750.55 2146)">based simulator</text><rect x="80.4999" y="409.5" width="4240" height="690" stroke="#182C33" stroke-width="6.875" stroke-miterlimit="8" fill="none"/><path d="M1811.5 345.834C1811.5 327.977 1825.98 313.5 1843.83 313.5L2557.17 313.5C2575.02 313.5 2589.5 327.977 2589.5 345.834L2589.5 475.166C2589.5 493.023 2575.02 507.5 2557.17 507.5L1843.83 507.5C1825.98 507.5 1811.5 493.023 1811.5 475.166Z" stroke="#042433" stroke-width="6.875" stroke-miterlimit="8" fill="#173035" fill-rule="evenodd"/><text fill="#E7FCEF" font-family="Malgun Gothic,Malgun Gothic_MSFontService,sans-serif" font-weight="700" font-size="83" transform="matrix(1 0 0 1 1929.3 441)">Qadence</text><text fill="#E7FCEF" font-family="Malgun Gothic,Malgun Gothic_MSFontService,sans-serif" font-weight="700" font-size="83" transform="matrix(1 0 0 1 2270.75 441)">-</text><text fill="#E7FCEF" font-family="Malgun Gothic,Malgun Gothic_MSFontService,sans-serif" font-weight="700" font-size="83" transform="matrix(1 0 0 1 2305.13 441)">Hub</text><path d="M169.5 586.001C169.5 568.051 184.051 553.5 202.001 553.5L1083 553.5C1100.95 553.5 1115.5 568.051 1115.5 586.001L1115.5 715.999C1115.5 733.949 1100.95 748.5 1083 748.5L202.001 748.5C184.051 748.5 169.5 733.949 169.5 715.999Z" stroke="#042433" stroke-width="6.875" stroke-miterlimit="8" fill="#173035" fill-rule="evenodd"/><text fill="#E1F6E9" font-family="Malgun Gothic,Malgun Gothic_MSFontService,sans-serif" font-weight="700" font-size="83" transform="matrix(1 0 0 1 256.297 682)">Qadence</text><text fill="#E1F6E9" font-family="Malgun Gothic,Malgun Gothic_MSFontService,sans-serif" font-weight="700" font-size="83" transform="matrix(1 0 0 1 597.755 682)">-</text><text fill="#E1F6E9" font-family="Malgun Gothic,Malgun Gothic_MSFontService,sans-serif" font-weight="700" font-size="83" transform="matrix(1 0 0 1 632.13 682)">Commons</text><text fill="#122B30" font-family="Malgun Gothic,Malgun Gothic_MSFontService,sans-serif" font-weight="400" font-size="73" transform="matrix(1 0 0 1 384.573 883)">Shared libraries</text><text fill="#122B30" font-family="Malgun Gothic,Malgun Gothic_MSFontService,sans-serif" font-weight="400" font-size="73" transform="matrix(1 0 0 1 447.662 971)">for </text><text fill="#122B30" font-family="Malgun Gothic,Malgun Gothic_MSFontService,sans-serif" font-weight="400" font-size="73" transform="matrix(1 0 0 1 566.829 971)">Qadence</text><path d="M1204.5 586C1204.5 568.051 1219.05 553.5 1237 553.5L2184 553.5C2201.95 553.5 2216.5 568.051 2216.5 586L2216.5 715.999C2216.5 733.949 2201.95 748.5 2184 748.5L1237 748.5C1219.05 748.5 1204.5 733.949 1204.5 715.999Z" stroke="#042433" stroke-width="6.875" stroke-miterlimit="8" fill="#173035" fill-rule="evenodd"/><text fill="#E1F6E9" font-family="Malgun Gothic,Malgun Gothic_MSFontService,sans-serif" font-weight="700" font-size="83" transform="matrix(1 0 0 1 1252.45 682)">Qadence</text><text fill="#E1F6E9" font-family="Malgun Gothic,Malgun Gothic_MSFontService,sans-serif" font-weight="700" font-size="83" transform="matrix(1 0 0 1 1593.91 682)">-</text><text fill="#E1F6E9" font-family="Malgun Gothic,Malgun Gothic_MSFontService,sans-serif" font-weight="700" font-size="83" transform="matrix(1 0 0 1 1628.28 682)">Measurement</text><text fill="#122B30" font-family="Malgun Gothic,Malgun Gothic_MSFontService,sans-serif" font-weight="400" font-size="73" transform="matrix(1 0 0 1 1354.16 896)">Measurement &amp; post </text><text fill="#122B30" font-family="Malgun Gothic,Malgun Gothic_MSFontService,sans-serif" font-weight="400" font-size="73" transform="matrix(1 0 0 1 1532.34 984)">processing</text><path d="M2331.5 586C2331.5 568.051 2346.05 553.5 2364 553.5L3169 553.5C3186.95 553.5 3201.5 568.051 3201.5 586L3201.5 715.999C3201.5 733.949 3186.95 748.5 3169 748.5L2364 748.5C2346.05 748.5 2331.5 733.949 2331.5 715.999Z" stroke="#042433" stroke-width="6.875" stroke-miterlimit="8" fill="#173035" fill-rule="evenodd"/><text fill="#E1F6E9" font-family="Malgun Gothic,Malgun Gothic_MSFontService,sans-serif" font-weight="700" font-size="83" transform="matrix(1 0 0 1 2373.54 682)">Qadence</text><text fill="#E1F6E9" font-family="Malgun Gothic,Malgun Gothic_MSFontService,sans-serif" font-weight="700" font-size="83" transform="matrix(1 0 0 1 2715 682)">-</text><text fill="#E1F6E9" font-family="Malgun Gothic,Malgun Gothic_MSFontService,sans-serif" font-weight="700" font-size="83" transform="matrix(1 0 0 1 2749.38 682)">Mitigation</text><text fill="#122B30" font-family="Malgun Gothic,Malgun Gothic_MSFontService,sans-serif" font-weight="400" font-size="73" transform="matrix(1 0 0 1 2504.4 896)">Error mitigation </text><text fill="#122B30" font-family="Malgun Gothic,Malgun Gothic_MSFontService,sans-serif" font-weight="400" font-size="73" transform="matrix(1 0 0 1 2573.21 984)">techniques</text><path d="M3373.5 586C3373.5 568.051 3388.05 553.5 3406 553.5L4116 553.5C4133.95 553.5 4148.5 568.051 4148.5 586L4148.5 716C4148.5 733.949 4133.95 748.5 4116 748.5L3406 748.5C3388.05 748.5 3373.5 733.949 3373.5 716Z" stroke="#042433" stroke-width="6.875" stroke-miterlimit="8" fill="#173035" fill-rule="evenodd"/><text fill="#E1F6E9" font-family="Malgun Gothic,Malgun Gothic_MSFontService,sans-serif" font-weight="700" font-size="83" transform="matrix(1 0 0 1 3447.3 682)">Qadence</text><text fill="#E1F6E9" font-family="Malgun Gothic,Malgun Gothic_MSFontService,sans-serif" font-weight="700" font-size="83" transform="matrix(1 0 0 1 3788.76 682)">-</text><text fill="#E1F6E9" font-family="Malgun Gothic,Malgun Gothic_MSFontService,sans-serif" font-weight="700" font-size="83" transform="matrix(1 0 0 1 3823.14 682)">Model</text><text fill="#122B30" font-family="Malgun Gothic,Malgun Gothic_MSFontService,sans-serif" font-weight="400" font-size="73" transform="matrix(1 0 0 1 3521.53 896)">Optimizers for </text><text fill="#122B30" font-family="Malgun Gothic,Malgun Gothic_MSFontService,sans-serif" font-weight="400" font-size="73" transform="matrix(1 0 0 1 3309.87 984)">quantum machine learning</text><text fill="#173035" font-family="Malgun Gothic,Malgun Gothic_MSFontService,sans-serif" font-weight="400" font-size="73" transform="matrix(1 0 0 1 1316.69 150)">Github</text><text fill="#173035" font-family="Malgun Gothic,Malgun Gothic_MSFontService,sans-serif" font-weight="400" font-size="73" transform="matrix(1 0 0 1 1566.48 150)">wrapper</text><text fill="#173035" font-family="Malgun Gothic,Malgun Gothic_MSFontService,sans-serif" font-weight="400" font-size="73" transform="matrix(1 0 0 1 1863.82 150)">that hosts multiple Python packages </text><text fill="#173035" font-family="Malgun Gothic,Malgun Gothic_MSFontService,sans-serif" font-weight="400" font-size="73" transform="matrix(1 0 0 1 1536.16 238)">developed under the</text><text fill="#173035" font-family="Malgun Gothic,Malgun Gothic_MSFontService,sans-serif" font-weight="400" font-size="73" transform="matrix(1 0 0 1 2263.31 238)">Qadence</text><text fill="#173035" font-family="Malgun Gothic,Malgun Gothic_MSFontService,sans-serif" font-weight="400" font-size="73" transform="matrix(1 0 0 1 2584.71 238)">initiative</text><path d="M206.5 1308.83C206.5 1290.98 220.976 1276.5 238.834 1276.5L909.166 1276.5C927.024 1276.5 941.5 1290.98 941.5 1308.83L941.5 1438.17C941.5 1456.02 927.024 1470.5 909.166 1470.5L238.834 1470.5C220.976 1470.5 206.5 1456.02 206.5 1438.17Z" stroke="#042433" stroke-width="6.875" stroke-miterlimit="8" fill="#00C887" fill-rule="evenodd"/><text fill="#182C33" font-family="Malgun Gothic,Malgun Gothic_MSFontService,sans-serif" font-weight="700" font-size="83" transform="matrix(1 0 0 1 435.864 1405)">Library</text><path d="M206.5 1874.83C206.5 1856.98 220.976 1842.5 238.834 1842.5L909.166 1842.5C927.024 1842.5 941.5 1856.98 941.5 1874.83L941.5 2004.17C941.5 2022.02 927.024 2036.5 909.166 2036.5L238.834 2036.5C220.976 2036.5 206.5 2022.02 206.5 2004.17Z" stroke="#042433" stroke-width="6.875" stroke-miterlimit="8" fill="#00C887" fill-rule="evenodd"/><text fill="#182C33" font-family="Malgun Gothic,Malgun Gothic_MSFontService,sans-serif" font-weight="700" font-size="83" transform="matrix(1 0 0 1 408.49 1971)">Backend</text><path d="M2139.5 1177.5 2201.75 1177.5 2201.75 1099.5 2326.25 1099.5 2326.25 1177.5 2388.5 1177.5 2264 1255.5Z" stroke="#182C33" stroke-width="6.875" stroke-miterlimit="8" fill="#00C887" fill-rule="evenodd"/><path d="M1559.5 1706.5 1621.75 1706.5 1621.75 1628.5 1746.25 1628.5 1746.25 1706.5 1808.5 1706.5 1684 1784.5Z" stroke="#182C33" stroke-width="6.875" stroke-miterlimit="8" fill="#00C887" fill-rule="evenodd"/><path d="M2749.5 1706.5 2811.75 1706.5 2811.75 1628.5 2936.25 1628.5 2936.25 1706.5 2998.5 1706.5 2874 1784.5Z" stroke="#182C33" stroke-width="6.875" stroke-miterlimit="8" fill="#00C887" fill-rule="evenodd"/><path d="M206.5 208.001C206.5 190.051 221.051 175.5 239 175.5L909 175.5C926.949 175.5 941.5 190.051 941.5 208.001L941.5 338C941.5 355.949 926.949 370.5 909 370.5L239 370.5C221.051 370.5 206.5 355.949 206.5 338Z" stroke="#042433" stroke-width="6.875" stroke-miterlimit="8" fill="#00C887" fill-rule="evenodd"/><text fill="#182C33" font-family="Malgun Gothic,Malgun Gothic_MSFontService,sans-serif" font-weight="700" font-size="83" transform="matrix(1 0 0 1 393.525 304)">Package</text><text fill="#182C33" font-family="Malgun Gothic,Malgun Gothic_MSFontService,sans-serif" font-weight="700" font-size="83" transform="matrix(1 0 0 1 714.358 304)">s</text></g></svg>
